<?xml version="1.0" encoding="utf-8"?>
<!-- Generator: Adobe Illustrator 19.0.0, SVG Export Plug-In . SVG Version: 6.00 Build 0)  -->
<svg version="1.1" id="Layer_1" xmlns="http://www.w3.org/2000/svg" xmlns:xlink="http://www.w3.org/1999/xlink" x="0px" y="0px"
	 viewBox="0 0 247.3 277.7" style="enable-background:new 0 0 247.3 277.7;" xml:space="preserve">
<style type="text/css">
	.st0{fill:#FFFFFF;}
</style>
<polygon id="XMLID_40_" class="st0" points="101,53.9 117.3,58.9 123.6,42.9 129.9,58.9 146.3,53.9 137.8,68.7 151.9,78.4 135,81 
	136.2,98 123.6,86.4 111.1,98 112.3,81 95.4,78.4 109.5,68.7 "/>
<polygon id="XMLID_39_" class="st0" points="71.8,159.6 59.3,148 46.7,159.6 47.9,142.5 31,139.9 45.1,130.3 36.6,115.4 53,120.4 
	59.3,104.5 65.5,120.4 81.9,115.4 73.4,130.3 87.5,139.9 70.6,142.5 "/>
<polygon id="XMLID_38_" class="st0" points="136.2,234.7 123.6,223.1 111.1,234.7 112.3,217.6 95.4,215 109.5,205.4 101,190.5 
	117.3,195.5 123.6,179.6 129.9,195.5 146.3,190.5 137.8,205.4 151.9,215 135,217.6 "/>
<polygon id="XMLID_37_" class="st0" points="159.6,162.1 149.5,154.8 139.3,162.1 143.2,150.2 133.2,142.9 145.6,142.9 149.5,131.1 
	153.3,142.9 165.8,142.9 155.7,150.2 "/>
<polygon id="XMLID_36_" class="st0" points="200.6,143.7 188,132 175.4,143.7 176.7,126.6 159.8,124 173.9,114.3 165.4,99.5 
	181.7,104.5 188,88.6 194.3,104.5 210.7,99.5 202.2,114.3 216.3,124 199.3,126.6 "/>
</svg>
